<?xml version="1.0" encoding="UTF-8" standalone="no"?>
<!-- Created with Inkscape (http://www.inkscape.org/) -->

<svg
   xmlns:dc="http://purl.org/dc/elements/1.1/"
   xmlns:cc="http://creativecommons.org/ns#"
   xmlns:rdf="http://www.w3.org/1999/02/22-rdf-syntax-ns#"
   xmlns:svg="http://www.w3.org/2000/svg"
   xmlns="http://www.w3.org/2000/svg"
   xmlns:sodipodi="http://sodipodi.sourceforge.net/DTD/sodipodi-0.dtd"
   xmlns:inkscape="http://www.inkscape.org/namespaces/inkscape"
   width="200"
   height="200"
   id="svg5358"
   version="1.1"
   inkscape:version="0.48.5 r10040"
   sodipodi:docname="New document 6">
  <defs
     id="defs5360" />
  <sodipodi:namedview
     id="base"
     pagecolor="#ffffff"
     bordercolor="#666666"
     borderopacity="1.0"
     inkscape:pageopacity="0.0"
     inkscape:pageshadow="2"
     inkscape:zoom="0.35"
     inkscape:cx="33.571429"
     inkscape:cy="520"
     inkscape:document-units="px"
     inkscape:current-layer="layer1"
     showgrid="false"
     inkscape:window-width="1366"
     inkscape:window-height="706"
     inkscape:window-x="-8"
     inkscape:window-y="-8"
     inkscape:window-maximized="1" />
  <metadata
     id="metadata5363">
    <rdf:RDF>
      <cc:Work
         rdf:about="">
        <dc:format>image/svg+xml</dc:format>
        <dc:type
           rdf:resource="http://purl.org/dc/dcmitype/StillImage" />
        <dc:title></dc:title>
      </cc:Work>
    </rdf:RDF>
  </metadata>
  <g
     inkscape:label="Layer 1"
     inkscape:groupmode="layer"
     id="layer1"
     transform="translate(0,-852.36218)">
    <g
       inkscape:tile-y0="96.622818"
       inkscape:tile-x0="17.480689"
       inkscape:tile-h="56.754369"
       inkscape:tile-w="85.038637"
       inkscape:tile-cy="125"
       inkscape:tile-cx="60.000008"
       transform="matrix(0.96592583,-0.25881905,0.25881905,0.96592583,32.230156,330.64469)"
       id="g5312">
      <g
         transform="matrix(0.96592583,0.25881905,-0.25881905,0.96592583,-135.41515,71.752181)"
         id="g5314">
        <rect
           transform="translate(0,252.36218)"
           style="fill:#7e1c13;fill-opacity:1;fill-rule:nonzero;stroke:none"
           id="rect5316"
           width="70"
           height="5"
           x="145"
           y="245" />
        <rect
           y="532.36218"
           x="145"
           height="5"
           width="70"
           id="rect5318"
           style="fill:#7e1c13;fill-opacity:1;fill-rule:nonzero;stroke:none" />
        <rect
           style="fill:#7e1c13;fill-opacity:1;fill-rule:nonzero;stroke:none"
           id="rect5320"
           width="29.999998"
           height="5"
           x="502.36218"
           y="-145"
           transform="matrix(0,1,-1,0,0,0)" />
        <rect
           transform="matrix(0,1,-1,0,0,0)"
           y="-220"
           x="502.36218"
           height="5"
           width="29.999998"
           id="rect5322"
           style="fill:#7e1c13;fill-opacity:1;fill-rule:nonzero;stroke:none" />
        <rect
           transform="translate(0,252.36218)"
           style="fill:#e6e6e6;fill-opacity:1;fill-rule:nonzero;stroke:none"
           id="rect5324"
           width="70"
           height="30"
           x="145"
           y="250" />
        <path
           style="fill:#b3b3b3;fill-opacity:1;fill-rule:nonzero;stroke:none"
           d="m 145,502.36218 15,0 0,5 -5,0 0,5 -5,0 0,5 -5,0 z"
           id="path5326"
           inkscape:connector-curvature="0"
           sodipodi:nodetypes="ccccccccc" />
        <path
           transform="translate(0,252.36218)"
           style="fill:#cccccc;fill-opacity:1;stroke:none"
           d="m 150,265 0,10 -5,0 0,-10 5,0 0,-5 5,0 0,-5 5,0 0,-5 5,0 0,5 -5,0 0,5 -5,0 0,5 z"
           id="path5328"
           inkscape:connector-curvature="0"
           sodipodi:nodetypes="ccccccccccccccccc" />
        <rect
           style="fill:#cccccc;fill-opacity:1;fill-rule:nonzero;stroke:none"
           id="rect5330"
           width="55"
           height="5"
           x="160"
           y="502.36218" />
        <rect
           style="fill:#cccccc;fill-opacity:1;fill-rule:nonzero;stroke:none"
           id="rect5332"
           width="70"
           height="5"
           x="145"
           y="527.36218" />
        <rect
           transform="translate(0,252.36218)"
           style="fill:#cccccc;fill-opacity:1;fill-rule:nonzero;stroke:none"
           id="rect5334"
           width="5"
           height="30"
           x="210"
           y="250" />
      </g>
    </g>
  </g>
</svg>
